<?xml version="1.0" encoding="UTF-8"?>
<svg width="1232px" height="416px" viewBox="0 0 1232 416" version="1.1" xmlns="http://www.w3.org/2000/svg" xmlns:xlink="http://www.w3.org/1999/xlink">
    <title>Logo</title>
    <g id="Page-1" stroke="none" stroke-width="1" fill="none" fill-rule="evenodd">
        <g id="Logo---Request-Body" transform="translate(-32.000000, -48.000000)" fill="#FF6700" fill-rule="nonzero">
            <g id="Logo" transform="translate(32.000000, 48.000000)">
                <path d="M190.887383,0 L325.226493,333.694659 L1210.2981,333.694659 L1232,416 L277.489401,416 L200.025658,218.369664 L83.0363351,392.974156 L0,392.974156 L166.07267,137.211275 L142.782543,66.388382 L88.527616,66.388382 L88.527616,0 L190.887383,0 Z M792,346 L764,346 L756,354 L756,394 L764,402 L780,402 L788,410 L800,410 L800,354 L792,346 Z M696,346 L660,346 L660,402 L676,402 L676,390 L688,390 L688,402 L704,402 L704,386 L700,382 L704,378 L704,354 L696,346 Z M752,346 L708,346 L708,402 L752,402 L752,386 L724,386 L724,382 L744,382 L748,366 L724,366 L724,362 L752,362 L752,346 Z M820,346 L804,346 L804,394 L812,402 L840,402 L848,394 L848,346 L832,346 L832,386 L820,386 L820,346 Z M896,346 L852,346 L852,402 L896,402 L896,386 L868,386 L868,382 L888,382 L892,366 L868,366 L868,362 L896,362 L896,346 Z M936,346 L908,346 L900,354 L900,374 L908,382 L928,382 L928,386 L900,386 L900,394 L908,402 L936,402 L944,394 L944,374 L936,366 L916,366 L916,362 L944,362 L944,354 L936,346 Z M988,346 L948,346 L948,362 L960,362 L960,402 L976,402 L976,362 L988,362 L988,346 Z M1040,346 L1004,346 L1004,402 L1040,402 L1048,394 L1048,378 L1044,374 L1048,370 L1048,354 L1040,346 Z M1088,346 L1060,346 L1052,354 L1052,394 L1060,402 L1088,402 L1096,394 L1096,354 L1088,346 Z M1136,346 L1100,346 L1100,402 L1136,402 L1144,394 L1144,354 L1136,346 Z M1164,346 L1148,346 L1148,374 L1156,382 L1162,382 L1162,402 L1178,402 L1178,382 L1184,382 L1192,374 L1192,346 L1176,346 L1176,366 L1164,366 L1164,346 Z" id="Combined-Shape"></path>
                <g id="text" transform="translate(258.000000, 0.000000)">
                    <path d="M390.625,0.1015625 L402.832031,12.3085938 L415.039062,0.1015625 L488.28125,0.1015625 L512.695312,24.515625 L512.695312,171 L463.867188,171 L463.867188,48.9296875 L427.246094,48.9296875 L427.246094,171 L378.417969,171 L378.417969,48.9296875 L341.796875,48.9296875 L341.796875,171 L292.96875,171 L292.96875,24.515625 L317.382812,0.1015625 L390.625,0.1015625 Z M634.765625,0.1015625 L659.179688,24.515625 L659.179688,73.34375 L646.972656,85.5507812 L659.179688,97.7578125 L659.179688,146.585938 L634.765625,171 L524.902344,171 L524.902344,0.1015625 L634.765625,0.1015625 Z M781.25,0.1015625 L805.664062,24.515625 L805.664062,146.585938 L781.25,171 L671.386719,171 L671.386719,0.1015625 L781.25,0.1015625 Z M927.734375,0.1015625 L952.148438,24.515625 L952.148438,171 L903.320312,171 L903.320312,134.378906 L866.699219,134.378906 L866.699219,171 L817.871094,171 L817.871094,24.515625 L842.285156,0.1015625 L927.734375,0.1015625 Z M255.863281,0 L280.277344,24.4140625 L280.277344,170.898438 L231.449219,170.898438 L231.449219,134.277344 L194.828125,134.277344 L194.828125,170.898438 L146,170.898438 L146,24.4140625 L170.414062,0 L255.863281,0 Z M48.828125,0.1015625 L48.828125,122.171875 L85.4492188,122.171875 L85.4492188,85.5507812 L134.277344,97.7578125 L134.277344,171 L21.341,171 L0,116.389562 L0,0.1015625 L48.828125,0.1015625 Z" id="Lambda"></path>
                    <path d="M169.189453,198.207031 L185.302734,214.320312 L185.302734,294.886719 L169.189453,311 L112.792969,311 L96.6796875,294.886719 L96.6796875,214.320312 L112.792969,198.207031 L169.189453,198.207031 Z M225.585937,198.207031 L249.755859,254.603516 L249.755859,198.207031 L281.982422,198.207031 L281.982422,311 L249.755859,311 L225.585937,254.603516 L225.585937,311 L193.359375,311 L193.359375,198.207031 L225.585937,198.207031 Z M370.605469,198.207031 L370.605469,230.433594 L346.435547,230.433594 L346.435547,311 L314.208984,311 L314.208984,230.433594 L290.039062,230.433594 L290.039062,198.207031 L370.605469,198.207031 Z M451.171875,198.207031 L467.285156,214.320312 L467.285156,262.660156 L459.228516,270.716797 L467.285156,278.773438 L467.285156,311 L435.058594,311 L435.058594,286.830078 L410.888672,286.830078 L410.888672,311 L378.662109,311 L378.662109,198.207031 L451.171875,198.207031 Z M547.851562,198.207031 L563.964844,214.320312 L563.964844,294.886719 L547.851562,311 L491.455078,311 L475.341797,294.886719 L475.341797,214.320312 L491.455078,198.207031 L547.851562,198.207031 Z M604.248047,198.207031 L604.248047,278.773438 L628.417969,278.773438 L628.417969,254.603516 L660.644531,262.660156 L660.644531,311 L572.021484,311 L572.021484,198.207031 L604.248047,198.207031 Z M700.927734,198.207031 L700.927734,278.773438 L725.097656,278.773438 L725.097656,254.603516 L757.324219,262.660156 L757.324219,311 L668.701172,311 L668.701172,198.207031 L700.927734,198.207031 Z M854.003906,198.207031 L854.003906,230.433594 L797.607422,230.433594 L797.607422,238.490234 L845.947266,238.490234 L837.890625,270.716797 L797.607422,270.716797 L797.607422,278.773438 L854.003906,278.773438 L854.003906,311 L765.380859,311 L765.380859,198.207031 L854.003906,198.207031 Z M934.570312,198.207031 L950.683594,214.320312 L950.683594,262.660156 L942.626953,270.716797 L950.683594,278.773438 L950.683594,311 L918.457031,311 L918.457031,286.830078 L894.287109,286.830078 L894.287109,311 L862.060547,311 L862.060547,198.207031 L934.570312,198.207031 Z M57.243,262.872 L88.6230469,270.716797 L88.6230469,294.886719 L75.055,308.454 L57.243,262.872 Z M72.5097656,198.207 L88.6230469,214.320312 L88.6230469,238.490234 L56.3964844,246.546875 L56.3964844,230.433594 L44.566,230.433 L31.973,198.207 L72.5097656,198.207 Z" id="Controller"></path>
                </g>
            </g>
        </g>
    </g>
</svg>