<?xml version="1.0" encoding="UTF-8"?>
<svg width="853px" height="430px" viewBox="0 0 853 430" version="1.1" xmlns="http://www.w3.org/2000/svg" xmlns:xlink="http://www.w3.org/1999/xlink">
    <title>request-body</title>
    <g id="Page-1" stroke="none" stroke-width="1" fill="none" fill-rule="evenodd">
        <g id="Request-Body-Logo" transform="translate(-52.000000, -27.000000)">
            <g id="request-body" transform="translate(52.000000, 27.000000)">
                <polygon id="Path" fill="#3E363F" fill-rule="nonzero" points="36.1432812 52 36.1432812 167.667582 70 167.667 69.993 194 2 194 2 52"></polygon>
                <path d="M333.307701,52 L365.060596,150.79533 L396.715789,52 L441.85375,52 L441.85375,194 L407.462923,194 L407.462923,160.840659 L410.784764,92.9615385 L376.393937,194 L353.727255,194 L322.533,102.525 L322.541027,69.7960867 L296,52 L333.307701,52 Z M322.518,159.983 L322.560568,160.840659 L322.560568,194 L322.509,194 L322.518,159.983 Z M526.384841,194 C543.710523,193.869963 556.786202,190.310211 565.611878,183.320742 C574.437555,176.331273 578.850393,165.879579 578.850393,151.965659 C578.850393,144.293498 576.863801,137.791667 572.890619,132.460165 C568.917436,127.128663 563.218198,123.487637 555.792906,121.537088 C562.371455,119.066392 567.354217,115.230311 570.741192,110.028846 C574.128167,104.827381 575.821655,98.5531136 575.821655,91.206044 C575.821655,78.4624542 571.050579,68.7422161 561.508427,62.0453297 C552.113078,55.4514722 538.471198,52.1038216 520.582788,52.0023776 L519.741158,52 L468.643423,52 L468.643423,194 L526.384841,194 Z M520.815871,111.199176 L502.936549,111.199176 L502.936549,78.4299451 L519.741158,78.4299451 C527.426987,78.4299451 532.995956,79.7465659 536.448066,82.3798077 C539.900175,85.0130495 541.62623,89.3205128 541.62623,95.3021978 C541.62623,100.503663 540.030444,104.437271 536.838871,107.103022 C533.727087,109.702129 528.572005,111.065076 521.373623,111.191861 L520.815871,111.199176 Z M525.407829,167.667582 L502.936549,167.667582 L502.936549,133.630495 L526.971048,133.630495 C538.760328,133.695513 544.654968,139.644689 544.654968,151.478022 C544.654968,156.614469 542.994047,160.596841 539.672206,163.425137 C536.448066,166.170249 531.874026,167.583174 525.950087,167.663912 L525.407829,167.667582 Z M644.505609,194 C656.815962,193.934982 667.970184,190.992903 677.968275,185.173764 C687.966366,179.354625 695.717329,171.292353 701.221164,160.986951 C706.60535,150.905578 709.355967,139.533096 709.473015,126.869504 L709.476916,126.023352 L709.476916,119.489011 C709.411782,106.615385 706.562163,94.9933608 700.92806,84.6229396 C695.293957,74.2525183 687.461576,66.2227564 677.430918,60.5336538 C667.613678,54.965596 656.579795,52.1223324 644.329269,52.0038631 L643.528597,52 L597.706727,52 L597.706727,194 L644.505609,194 Z M643.919401,167.667582 L631.999853,167.667582 L631.999853,78.4299451 L643.528597,78.4299451 C653.624389,78.4299451 661.310218,81.9084249 666.586083,88.8653846 C671.76939,95.7002924 674.406511,105.798563 674.497446,119.160197 L674.499882,119.879121 L674.499882,126.023352 C674.499882,139.807234 671.861949,150.19391 666.586083,157.183379 C661.404429,164.048036 654.023772,167.541656 644.444109,167.664239 L643.919401,167.667582 Z M752.660853,194 L760.867755,167.472527 L807.862039,167.472527 L816.166642,194 L853,194 L800.436747,52 L768.195346,52 L716.022898,194 L752.660853,194 Z M799.655137,141.042582 L769.074657,141.042582 L784.316046,91.7912088 L799.655137,141.042582 Z" id="Shape" fill="#3E363F" fill-rule="nonzero"></path>
                <path d="M37.4494472,312 C48.0191209,312 56.4816936,309.227273 62.8371655,303.681818 C69.0680203,298.245098 72.7919074,290.449145 74.0088267,280.29396 L74.0788335,279.681818 L65.604871,279.681818 C64.5570154,288.090909 61.8006997,294.397727 57.3359237,298.602273 C52.8711478,302.806818 46.2423223,304.909091 37.4494472,304.909091 C28.5654543,304.909091 21.5152086,301.5 16.2987101,294.681818 C11.1865417,288 8.57933577,279.0918 8.47709241,267.957218 L8.47396251,267.272727 L8.47396251,255.136364 C8.47396251,243.272727 11.1505501,233.977273 16.5037254,227.25 C21.8569006,220.522727 29.0438231,217.159091 38.0644929,217.159091 C54.1663884,217.159091 63.3248489,225.423116 65.5398744,241.951166 L65.604871,242.454545 L74.0788335,242.454545 C73.0765369,232.318182 69.4887705,224.375 63.3155344,218.625 C57.1422982,212.875 48.7252844,210 38.0644929,210 C30.5017091,210 23.8159349,211.852273 18.0071703,215.556818 C12.1984057,219.261364 7.74501949,224.522727 4.6470117,231.340909 C1.64581664,237.946023 0.0983254428,245.489613 0.00453809736,253.97168 L0,254.795455 L0,267.681818 C0.0455589382,276.363636 1.61734231,284.079545 4.7153501,290.829545 C7.8133579,297.579545 12.1984057,302.795455 17.8704935,306.477273 C23.5425813,310.159091 30.0688992,312 37.4494472,312 Z M99.0575831,225.128196 L105.862322,229.229811 C101.308122,235.740546 98.9835826,244.438911 98.8887034,255.324906 L98.8856754,256.022727 L98.8856754,266.386364 L98.8887081,267.062849 C98.9918223,278.517016 101.724348,287.621066 107.086284,294.375 C112.553357,301.261364 119.979464,304.704545 129.364605,304.704545 C138.886423,304.704545 146.31253,301.306818 151.642926,294.511364 C156.872748,287.844125 159.536997,278.606253 159.635673,266.797748 L159.638519,266.113636 L159.638,261.643 L168.042,266.709 L168.039782,267.213874 C167.949647,275.733116 166.462424,283.269618 163.578113,289.823378 L163.294624,290.454545 C160.128278,297.363636 155.606553,302.681818 149.72945,306.409091 C143.852347,310.136364 137.064066,312 129.364605,312 C117.747076,312 108.361935,307.852273 101.209181,299.556818 C94.177661,291.401965 90.6023118,280.446779 90.4831335,266.691262 L90.4800513,265.977273 L90.4800513,255.75 L90.4844754,254.930535 C90.5788564,246.219958 92.1833343,238.481749 95.297909,231.715909 C96.2735575,229.596492 97.3721651,227.625966 98.5937319,225.80433 L99.0575831,225.128196 Z M263.307,245.01 L263.307883,310.636364 L254.902259,310.636364 L225.971,267.666 L232.825,263.507 L254.970598,296.386364 L254.97,250.069 L263.307,245.01 Z M189.229,279.479 L197.703012,284.587 L197.703012,310.636364 L189.229,310.636364 L189.229,279.479 Z M356.11144,211.363 L356.11144,218.522727 L322.010575,218.522727 L322.010575,310.636364 L313.604951,310.636364 L313.604951,218.522727 L306.957,218.522 L318.755,211.363 L356.11144,211.363 Z M380.439913,310.636364 L380.439913,269.318182 L409.34706,269.318182 L433.402179,310.636364 L442.35451,310.636364 L442.35451,309.75 L417.47933,267.545455 C423.766464,265.681818 428.777947,262.318182 432.51378,257.454545 C436.249613,252.590909 438.117529,246.977273 438.117529,240.613636 C438.117529,231.386364 435.133419,224.204545 429.165198,219.068182 C423.316341,214.034545 415.23599,211.467391 404.924143,211.366718 L404.290018,211.363636 L371.965951,211.363636 L371.965951,310.636364 L380.439913,310.636364 Z M406.203493,262.159091 L380.439913,262.159091 L380.439913,218.522727 L404.153341,218.522727 C412.217273,218.522727 418.481627,220.454545 422.946403,224.318182 C427.411179,228.181818 429.643567,233.613636 429.643567,240.613636 C429.643567,246.977273 427.502297,252.159091 423.219756,256.159091 C419.047025,260.056527 413.555091,262.055212 406.743955,262.155146 L406.203493,262.159091 Z M495.863483,312 C503.562944,312 510.351226,310.136364 516.228329,306.409091 C522.105432,302.681818 526.627156,297.363636 529.793503,290.454545 C532.863899,283.754821 534.445618,276.007931 534.538661,267.213874 L534.543022,266.386364 L534.543022,254.522727 C534.406345,245.659091 532.743444,237.863636 529.554318,231.136364 C526.365193,224.409091 521.843468,219.204545 515.989144,215.522727 C510.134821,211.840909 503.380708,210 495.726807,210 C488.072905,210 481.307403,211.875 475.4303,215.625 C469.553197,219.375 465.008693,224.738636 461.796787,231.715909 C458.682213,238.481749 457.077735,246.219958 456.983354,254.930535 L456.97893,255.75 L456.97893,265.977273 C456.97893,280.068182 460.555306,291.261364 467.70806,299.556818 C474.860813,307.852273 484.245954,312 495.863483,312 Z M495.863483,304.704545 C486.478342,304.704545 479.052235,301.261364 473.585163,294.375 C468.223226,287.621066 465.490701,278.517016 465.387587,267.062849 L465.384554,266.386364 L465.384554,256.022727 C465.384554,243.840909 468.12948,234.352273 473.619332,227.556818 C479.109184,220.761364 486.478342,217.363636 495.726807,217.363636 C505.157507,217.363636 512.583614,220.75 518.005127,227.522727 C523.324348,234.167667 526.03414,243.306669 526.134503,254.939731 L526.137398,255.613636 L526.137398,266.113636 C526.137398,278.25 523.4722,287.715909 518.141804,294.511364 C512.811408,301.306818 505.385302,304.704545 495.863483,304.704545 Z M613.337206,310.636364 L613.337206,303.545455 L564.201891,303.545455 L564.201891,211.363636 L555.727928,211.363636 L555.727928,310.636364 L613.337206,310.636364 Z M687.074347,310.636364 L687.074347,303.545455 L637.939032,303.545455 L637.939032,211.363636 L629.46507,211.363636 L629.46507,310.636364 L687.074347,310.636364 Z M765.116808,310.636364 L765.116808,303.545455 L711.607835,303.545455 L711.607835,263.045455 L758.146291,263.045455 L758.146291,255.954545 L711.607835,255.954545 L711.607835,218.522727 L764.775116,218.522727 L764.775116,211.363636 L703.202211,211.363636 L703.202211,310.636364 L765.116808,310.636364 Z M791.085403,310.636364 L791.085403,269.318182 L819.992549,269.318182 L844.047669,310.636364 L853,310.636364 L853,309.75 L828.12482,267.545455 C834.411953,265.681818 839.423436,262.318182 843.159269,257.454545 C846.895102,252.590909 848.763019,246.977273 848.763019,240.613636 C848.763019,231.386364 845.778908,224.204545 839.810687,219.068182 C833.961831,214.034545 825.881479,211.467391 815.569633,211.366718 L814.935507,211.363636 L782.61144,211.363636 L782.61144,310.636364 L791.085403,310.636364 Z M816.848983,262.159091 L791.085403,262.159091 L791.085403,218.522727 L814.79883,218.522727 C822.862762,218.522727 829.127116,220.454545 833.591892,224.318182 C838.056668,228.181818 840.289056,233.613636 840.289056,240.613636 C840.289056,246.977273 838.147786,252.159091 833.865246,256.159091 C829.692514,260.056527 824.200581,262.055212 817.389445,262.155146 L816.848983,262.159091 Z" id="Shape" fill="#B8B42D" fill-rule="nonzero"></path>
                <path d="M197.515379,0 L311,76.5283418 L310.969242,199.93835 L197.866724,269 L84,199.93835 L84.0307575,76.5283418 L197.515379,0 Z M194.322057,52 L152.293587,52 L152.293587,75.7965324 L174.62401,75.7965324 L183.597871,100.90661 L116,193.263139 L149.261192,193.263139 L197.5,130.447 L229.090683,201 L279,187.214411 L271.295688,165.314608 L248.055673,171.634455 L194.322057,52 Z" id="Shape" fill="#F15024" fill-rule="nonzero"></path>
                <rect id="Rectangle" fill="#697A21" x="2" y="331" width="851" height="7"></rect>
                <path d="M134.99,26 L124.569,33 L2,33 L2,26 L134.99,26 Z M853,26 L853,33 L270.465,33 L260.044,26 L853,26 Z" id="Shape" fill="#697A21"></path>
                <text id="Request-Body" font-family="Roboto-Bold, Roboto" font-size="80" font-weight="bold" fill="#697A21">
                    <tspan x="277.726562" y="408">REQUEST BODY</tspan>
                </text>
            </g>
        </g>
    </g>
</svg>