<?xml version="1.0" encoding="UTF-8"?>
<svg width="853px" height="430px" viewBox="0 0 853 430" version="1.1" xmlns="http://www.w3.org/2000/svg" xmlns:xlink="http://www.w3.org/1999/xlink">
    <title>request-body</title>
    <g id="Page-1" stroke="none" stroke-width="1" fill="none" fill-rule="evenodd">
        <g id="Request-Body-Logo" transform="translate(-52.000000, -27.000000)">
            <g id="request-body" transform="translate(52.000000, 27.000000)">
                <polygon id="Path" fill="#3E363F" fill-rule="nonzero" points="36.1432812 52 36.1432812 167.667582 70 167.667 69.993 194 2 194 2 52"></polygon>
                <path d="M333.307701,52 L365.060596,150.79533 L396.715789,52 L441.85375,52 L441.85375,194 L407.462923,194 L407.462923,160.840659 L410.784764,92.9615385 L376.393937,194 L353.727255,194 L322.533,102.525 L322.541027,69.7960867 L296,52 L333.307701,52 Z M322.518,159.983 L322.560568,160.840659 L322.560568,194 L322.509,194 L322.518,159.983 Z M526.384841,194 C543.710523,193.869963 556.786202,190.310211 565.611878,183.320742 C574.437555,176.331273 578.850393,165.879579 578.850393,151.965659 C578.850393,144.293498 576.863801,137.791667 572.890619,132.460165 C568.917436,127.128663 563.218198,123.487637 555.792906,121.537088 C562.371455,119.066392 567.354217,115.230311 570.741192,110.028846 C574.128167,104.827381 575.821655,98.5531136 575.821655,91.206044 C575.821655,78.4624542 571.050579,68.7422161 561.508427,62.0453297 C552.113078,55.4514722 538.471198,52.1038216 520.582788,52.0023776 L519.741158,52 L468.643423,52 L468.643423,194 L526.384841,194 Z M520.815871,111.199176 L502.936549,111.199176 L502.936549,78.4299451 L519.741158,78.4299451 C527.426987,78.4299451 532.995956,79.7465659 536.448066,82.3798077 C539.900175,85.0130495 541.62623,89.3205128 541.62623,95.3021978 C541.62623,100.503663 540.030444,104.437271 536.838871,107.103022 C533.727087,109.702129 528.572005,111.065076 521.373623,111.191861 L520.815871,111.199176 Z M525.407829,167.667582 L502.936549,167.667582 L502.936549,133.630495 L526.971048,133.630495 C538.760328,133.695513 544.654968,139.644689 544.654968,151.478022 C544.654968,156.614469 542.994047,160.596841 539.672206,163.425137 C536.448066,166.170249 531.874026,167.583174 525.950087,167.663912 L525.407829,167.667582 Z M644.505609,194 C656.815962,193.934982 667.970184,190.992903 677.968275,185.173764 C687.966366,179.354625 695.717329,171.292353 701.221164,160.986951 C706.60535,150.905578 709.355967,139.533096 709.473015,126.869504 L709.476916,126.023352 L709.476916,119.489011 C709.411782,106.615385 706.562163,94.9933608 700.92806,84.6229396 C695.293957,74.2525183 687.461576,66.2227564 677.430918,60.5336538 C667.613678,54.965596 656.579795,52.1223324 644.329269,52.0038631 L643.528597,52 L597.706727,52 L597.706727,194 L644.505609,194 Z M643.919401,167.667582 L631.999853,167.667582 L631.999853,78.4299451 L643.528597,78.4299451 C653.624389,78.4299451 661.310218,81.9084249 666.586083,88.8653846 C671.76939,95.7002924 674.406511,105.798563 674.497446,119.160197 L674.499882,119.879121 L674.499882,126.023352 C674.499882,139.807234 671.861949,150.19391 666.586083,157.183379 C661.404429,164.048036 654.023772,167.541656 644.444109,167.664239 L643.919401,167.667582 Z M752.660853,194 L760.867755,167.472527 L807.862039,167.472527 L816.166642,194 L853,194 L800.436747,52 L768.195346,52 L716.022898,194 L752.660853,194 Z M799.655137,141.042582 L769.074657,141.042582 L784.316046,91.7912088 L799.655137,141.042582 Z" id="Shape" fill="#3E363F" fill-rule="nonzero"></path>
                <path d="M37.4494472,312 C48.0191209,312 56.4816936,309.227273 62.8371655,303.681818 C69.0680203,298.245098 72.7919074,290.449145 74.0088267,280.29396 L74.0788335,279.681818 L65.604871,279.681818 C64.5570154,288.090909 61.8006997,294.397727 57.3359237,298.602273 C52.8711478,302.806818 46.2423223,304.909091 37.4494472,304.909091 C28.5654543,304.909091 21.5152086,301.5 16.2987101,294.681818 C11.1865417,288 8.57933577,279.0918 8.47709241,267.957218 L8.47396251,267.272727 L8.47396251,255.136364 C8.47396251,243.272727 11.1505501,233.977273 16.5037254,227.25 C21.8569006,220.522727 29.0438231,217.159091 38.0644929,217.159091 C54.1663884,217.159091 63.3248489,225.423116 65.5398744,241.951166 L65.604871,242.454545 L74.0788335,242.454545 C73.0765369,232.318182 69.4887705,224.375 63.3155344,218.625 C57.1422982,212.875 48.7252844,210 38.0644929,210 C30.5017091,210 23.8159349,211.852273 18.0071703,215.556818 C12.1984057,219.261364 7.74501949,224.522727 4.6470117,231.340909 C1.64581664,237.946023 0.0983254428,245.489613 0.00453809736,253.97168 L0,254.795455 L0,267.681818 C0.0455589382,276.363636 1.61734231,284.079545 4.7153501,290.829545 C7.8133579,297.579545 12.1984057,302.795455 17.8704935,306.477273 C23.5425813,310.159091 30.0688992,312 37.4494472,312 Z M99.0575831,225.128196 L105.862322,229.229811 C101.308122,235.740546 98.9835826,244.438911 98.8887034,255.324906 L98.8856754,256.022727 L98.8856754,266.386364 L98.8887081,267.062849 C98.9918223,278.517016 101.724348,287.621066 107.086284,294.375 C112.553357,301.261364 119.979464,304.704545 129.364605,304.704545 C138.886423,304.704545 146.31253,301.306818 151.642926,294.511364 C156.872748,287.844125 159.536997,278.606253 159.635673,266.797748 L159.638519,266.113636 L159.638,261.643 L168.042,266.709 L168.039782,267.213874 C167.949647,275.733116 166.462424,283.269618 163.578113,289.823378 L163.294624,290.454545 C160.128278,297.363636 155.606553,302.681818 149.72945,306.409091 C143.852347,310.136364 137.064066,312 129.364605,312 C117.747076,312 108.361935,307.852273 101.209181,299.556818 C94.177661,291.401965 90.6023118,280.446779 90.4831335,266.691262 L90.4800513,265.977273 L90.4800513,255.75 L90.4844754,254.930535 C90.5788564,246.219958 92.1833343,238.481749 95.297909,231.715909 C96.2735575,229.596492 97.3721651,227.625966 98.5937319,225.80433 L99.0575831,225.128196 Z M263.307,245.01 L263.307883,310.636364 L254.902259,310.636364 L225.971,267.666 L232.825,263.507 L254.970598,296.386364 L254.97,250.069 L263.307,245.01 Z M189.229,279.479 L197.703012,284.587 L197.703012,310.636364 L189.229,310.636364 L189.229,279.479 Z M356.11144,211.363 L356.11144,218.522727 L322.010575,218.522727 L322.010575,310.636364 L313.604951,310.636364 L313.604951,218.522727 L306.957,218.522 L318.755,211.363 L356.11144,211.363 Z M380.439913,310.636364 L380.439913,269.318182 L409.34706,269.318182 L433.402179,310.636364 L442.35451,310.636364 L442.35451,309.75 L417.47933,267.545455 C423.766464,265.681818 428.777947,262.318182 432.51378,257.454545 C436.249613,252.590909 438.117529,246.977273 438.117529,240.613636 C438.117529,231.386364 435.133419,224.204545 429.165198,219.068182 C423.316341,214.034545 415.23599,211.467391 404.924143,211.366718 L404.290018,211.363636 L371.965951,211.363636 L371.965951,310.636364 L380.439913,310.636364 Z M406.203493,262.159091 L380.439913,262.159091 L380.439913,218.522727 L404.153341,218.522727 C412.217273,218.522727 418.481627,220.454545 422.946403,224.318182 C427.411179,228.181818 429.643567,233.613636 429.643567,240.613636 C429.643567,246.977273 427.502297,252.159091 423.219756,256.159091 C419.047025,260.056527 413.555091,262.055212 406.743955,262.155146 L406.203493,262.159091 Z M495.863483,312 C503.562944,312 510.351226,310.136364 516.228329,306.409091 C522.105432,302.681818 526.627156,297.363636 529.793503,290.454545 C532.863899,283.754821 534.445618,276.007931 534.538661,267.213874 L534.543022,266.386364 L534.543022,254.522727 C534.406345,245.659091 532.743444,237.863636 529.554318,231.136364 C526.365193,224.409091 521.843468,219.204545 515.989144,215.522727 C510.134821,211.840909 503.380708,210 495.726807,210 C488.072905,210 481.307403,211.875 475.4303,215.625 C469.553197,219.375 465.008693,224.738636 461.796787,231.715909 C458.682213,238.481749 457.077735,246.219958 456.983354,254.930535 L456.97893,255.75 L456.97893,265.977273 C456.97893,280.068182 460.555306,291.261364 467.70806,299.556818 C474.860813,307.852273 484.245954,312 495.863483,312 Z M495.863483,304.704545 C486.478342,304.704545 479.052235,301.261364 473.585163,294.375 C468.223226,287.621066 465.490701,278.517016 465.387587,267.062849 L465.384554,266.386364 L465.384554,256.022727 C465.384554,243.840909 468.12948,234.352273 473.619332,227.556818 C479.109184,220.761364 486.478342,217.363636 495.726807,217.363636 C505.157507,217.363636 512.583614,220.75 518.005127,227.522727 C523.324348,234.167667 526.03414,243.306669 526.134503,254.939731 L526.137398,255.613636 L526.137398,266.113636 C526.137398,278.25 523.4722,287.715909 518.141804,294.511364 C512.811408,301.306818 505.385302,304.704545 495.863483,304.704545 Z M613.337206,310.636364 L613.337206,303.545455 L564.201891,303.545455 L564.201891,211.363636 L555.727928,211.363636 L555.727928,310.636364 L613.337206,310.636364 Z M687.074347,310.636364 L687.074347,303.545455 L637.939032,303.545455 L637.939032,211.363636 L629.46507,211.363636 L629.46507,310.636364 L687.074347,310.636364 Z M765.116808,310.636364 L765.116808,303.545455 L711.607835,303.545455 L711.607835,263.045455 L758.146291,263.045455 L758.146291,255.954545 L711.607835,255.954545 L711.607835,218.522727 L764.775116,218.522727 L764.775116,211.363636 L703.202211,211.363636 L703.202211,310.636364 L765.116808,310.636364 Z M791.085403,310.636364 L791.085403,269.318182 L819.992549,269.318182 L844.047669,310.636364 L853,310.636364 L853,309.75 L828.12482,267.545455 C834.411953,265.681818 839.423436,262.318182 843.159269,257.454545 C846.895102,252.590909 848.763019,246.977273 848.763019,240.613636 C848.763019,231.386364 845.778908,224.204545 839.810687,219.068182 C833.961831,214.034545 825.881479,211.467391 815.569633,211.366718 L814.935507,211.363636 L782.61144,211.363636 L782.61144,310.636364 L791.085403,310.636364 Z M816.848983,262.159091 L791.085403,262.159091 L791.085403,218.522727 L814.79883,218.522727 C822.862762,218.522727 829.127116,220.454545 833.591892,224.318182 C838.056668,228.181818 840.289056,233.613636 840.289056,240.613636 C840.289056,246.977273 838.147786,252.159091 833.865246,256.159091 C829.692514,260.056527 824.200581,262.055212 817.389445,262.155146 L816.848983,262.159091 Z" id="Shape" fill="#B8B42D" fill-rule="nonzero"></path>
                <path d="M197.515379,0 L311,76.5283418 L310.969242,199.93835 L197.866724,269 L84,199.93835 L84.0307575,76.5283418 L197.515379,0 Z M194.322057,52 L152.293587,52 L152.293587,75.7965324 L174.62401,75.7965324 L183.597871,100.90661 L116,193.263139 L149.261192,193.263139 L197.5,130.447 L229.090683,201 L279,187.214411 L271.295688,165.314608 L248.055673,171.634455 L194.322057,52 Z" id="Shape" fill="#F15024" fill-rule="nonzero"></path>
                <rect id="Rectangle" fill="#697A21" x="2" y="331" width="851" height="7"></rect>
                <path d="M134.99,26 L124.569,33 L2,33 L2,26 L134.99,26 Z M853,26 L853,33 L270.465,33 L260.044,26 L853,26 Z" id="Shape" fill="#697A21"></path>
                <path d="M294.523438,408 L294.523438,387.179688 L303.859375,387.179688 L314.523438,408 L327.101562,408 L327.101562,407.453125 L314.796875,384.210938 C318.208333,382.674479 320.753906,380.610677 322.433594,378.019531 C324.113281,375.428385 324.953125,372.192708 324.953125,368.3125 C324.953125,362.84375 323.130208,358.611979 319.484375,355.617188 C315.838542,352.622396 310.65625,351.125 303.9375,351.125 L303.9375,351.125 L282.804688,351.125 L282.804688,408 L294.523438,408 Z M303.976562,377.6875 L294.523438,377.6875 L294.523438,360.617188 L303.9375,360.617188 C307.088542,360.617188 309.425781,361.385417 310.949219,362.921875 C312.472656,364.458333 313.234375,366.567708 313.234375,369.25 C313.234375,371.880208 312.427083,373.94401 310.8125,375.441406 C309.197917,376.938802 306.919271,377.6875 303.976562,377.6875 L303.976562,377.6875 Z M371.984375,408 L371.984375,398.585938 L345.578125,398.585938 L345.578125,383.351562 L368.078125,383.351562 L368.078125,374.171875 L345.578125,374.171875 L345.578125,360.617188 L371.90625,360.617188 L371.90625,351.125 L333.859375,351.125 L333.859375,408 L371.984375,408 Z M417.765625,418.15625 L425.226562,411.554688 L415.773438,404.132812 C418.820312,401.763021 421.203125,398.61849 422.921875,394.699219 C424.640625,390.779948 425.5,386.164062 425.5,380.851562 L425.5,380.851562 L425.5,378.3125 C425.5,372.739583 424.490885,367.824219 422.472656,363.566406 C420.454427,359.308594 417.602865,356.040365 413.917969,353.761719 C410.233073,351.483073 406.020833,350.34375 401.28125,350.34375 C396.541667,350.34375 392.329427,351.483073 388.644531,353.761719 C384.959635,356.040365 382.108073,359.308594 380.089844,363.566406 C378.071615,367.824219 377.0625,372.752604 377.0625,378.351562 L377.0625,378.351562 L377.0625,381.164062 C377.088542,386.632812 378.117188,391.470052 380.148438,395.675781 C382.179688,399.88151 385.044271,403.117188 388.742188,405.382812 C392.440104,407.648438 396.645833,408.78125 401.359375,408.78125 C402.84375,408.78125 404.276042,408.664062 405.65625,408.429688 L405.65625,408.429688 L417.765625,418.15625 Z M401.359375,399.171875 C397.348958,399.171875 394.276042,397.570312 392.140625,394.367188 C390.005208,391.164062 388.9375,386.658854 388.9375,380.851562 L388.9375,380.851562 L388.9375,378.078125 C388.963542,372.166667 390.044271,367.68099 392.179688,364.621094 C394.315104,361.561198 397.348958,360.03125 401.28125,360.03125 C405.239583,360.03125 408.286458,361.580729 410.421875,364.679688 C412.557292,367.778646 413.625,372.309896 413.625,378.273438 L413.625,378.273438 L413.625,381.046875 C413.598958,386.958333 412.53125,391.457031 410.421875,394.542969 C408.3125,397.628906 405.291667,399.171875 401.359375,399.171875 Z M455.34375,408.78125 C462.088542,408.78125 467.407552,406.971354 471.300781,403.351562 C475.19401,399.731771 477.140625,394.809896 477.140625,388.585938 L477.140625,388.585938 L477.140625,351.125 L465.382812,351.125 L465.382812,388.976562 C465.278646,395.903646 461.932292,399.367188 455.34375,399.367188 C452.192708,399.367188 449.72526,398.514323 447.941406,396.808594 C446.157552,395.102865 445.265625,392.388021 445.265625,388.664062 L445.265625,388.664062 L445.265625,351.125 L433.546875,351.125 L433.546875,389.015625 C433.625,395.161458 435.617188,399.992188 439.523438,403.507812 C443.429688,407.023438 448.703125,408.78125 455.34375,408.78125 Z M524.875,408 L524.875,398.585938 L498.46875,398.585938 L498.46875,383.351562 L520.96875,383.351562 L520.96875,374.171875 L498.46875,374.171875 L498.46875,360.617188 L524.796875,360.617188 L524.796875,351.125 L486.75,351.125 L486.75,408 L524.875,408 Z M552.375,408.78125 C558.677083,408.78125 563.690104,407.38151 567.414062,404.582031 C571.138021,401.782552 573,397.921875 573,393 C573,388.572917 571.476562,384.875 568.429688,381.90625 C565.382812,378.9375 560.526042,376.450521 553.859375,374.445312 C550.239583,373.351562 547.498698,372.179688 545.636719,370.929688 C543.77474,369.679688 542.84375,368.130208 542.84375,366.28125 C542.84375,364.302083 543.638021,362.707031 545.226562,361.496094 C546.815104,360.285156 549.041667,359.679688 551.90625,359.679688 C554.875,359.679688 557.179688,360.402344 558.820312,361.847656 C560.460938,363.292969 561.28125,365.317708 561.28125,367.921875 L561.28125,367.921875 L573,367.921875 C573,364.510417 572.121094,361.463542 570.363281,358.78125 C568.605469,356.098958 566.138021,354.022135 562.960938,352.550781 C559.783854,351.079427 556.164062,350.34375 552.101562,350.34375 C548.065104,350.34375 544.425781,351.020833 541.183594,352.375 C537.941406,353.729167 535.454427,355.610677 533.722656,358.019531 C531.990885,360.428385 531.125,363.169271 531.125,366.242188 C531.125,372.153646 534.354167,376.854167 540.8125,380.34375 C543.182292,381.619792 546.398438,382.915365 550.460938,384.230469 C554.523438,385.545573 557.335938,386.795573 558.898438,387.980469 C560.460938,389.165365 561.242188,390.864583 561.242188,393.078125 C561.242188,395.109375 560.460938,396.691406 558.898438,397.824219 C557.335938,398.957031 555.161458,399.523438 552.375,399.523438 C544.875,399.523438 541.125,396.385417 541.125,390.109375 L541.125,390.109375 L529.367188,390.109375 C529.367188,393.78125 530.311198,397.010417 532.199219,399.796875 C534.08724,402.583333 536.828125,404.777344 540.421875,406.378906 C544.015625,407.980469 548,408.78125 552.375,408.78125 Z M606.320312,408 L606.320312,360.617188 L623.742188,360.617188 L623.742188,351.125 L577.414062,351.125 L577.414062,360.617188 L594.601562,360.617188 L594.601562,408 L606.320312,408 Z M672.453125,408 C678.911458,407.947917 683.885417,406.515625 687.375,403.703125 C690.864583,400.890625 692.609375,396.75 692.609375,391.28125 C692.609375,388.078125 691.769531,385.369792 690.089844,383.15625 C688.410156,380.942708 686.111979,379.471354 683.195312,378.742188 C685.747396,377.752604 687.739583,376.196615 689.171875,374.074219 C690.604167,371.951823 691.320312,369.497396 691.320312,366.710938 C691.320312,361.606771 689.536458,357.733073 685.96875,355.089844 C682.401042,352.446615 677.166667,351.125 670.265625,351.125 L670.265625,351.125 L650.34375,351.125 L650.34375,408 L672.453125,408 Z M670.734375,374.953125 L662.0625,374.953125 L662.0625,360.617188 L670.265625,360.617188 C673.494792,360.617188 675.858073,361.183594 677.355469,362.316406 C678.852865,363.449219 679.601562,365.304688 679.601562,367.882812 C679.601562,372.492188 676.645833,374.848958 670.734375,374.953125 L670.734375,374.953125 Z M672.101562,398.585938 L662.0625,398.585938 L662.0625,383.234375 L672.804688,383.234375 C678.195312,383.3125 680.890625,385.955729 680.890625,391.164062 C680.890625,393.481771 680.115885,395.298177 678.566406,396.613281 C677.016927,397.928385 674.861979,398.585938 672.101562,398.585938 L672.101562,398.585938 Z M723.976562,408.78125 C728.742188,408.78125 732.967448,407.635417 736.652344,405.34375 C740.33724,403.052083 743.169271,399.796875 745.148438,395.578125 C747.127604,391.359375 748.117188,386.450521 748.117188,380.851562 L748.117188,380.851562 L748.117188,378.3125 C748.117188,372.739583 747.108073,367.824219 745.089844,363.566406 C743.071615,359.308594 740.220052,356.040365 736.535156,353.761719 C732.85026,351.483073 728.638021,350.34375 723.898438,350.34375 C719.158854,350.34375 714.946615,351.483073 711.261719,353.761719 C707.576823,356.040365 704.72526,359.308594 702.707031,363.566406 C700.688802,367.824219 699.679688,372.752604 699.679688,378.351562 L699.679688,378.351562 L699.679688,381.164062 C699.705729,386.632812 700.734375,391.470052 702.765625,395.675781 C704.796875,399.88151 707.661458,403.117188 711.359375,405.382812 C715.057292,407.648438 719.263021,408.78125 723.976562,408.78125 Z M723.976562,399.171875 C719.966146,399.171875 716.893229,397.570312 714.757812,394.367188 C712.622396,391.164062 711.554688,386.658854 711.554688,380.851562 L711.554688,380.851562 L711.554688,378.078125 C711.580729,372.166667 712.661458,367.68099 714.796875,364.621094 C716.932292,361.561198 719.966146,360.03125 723.898438,360.03125 C727.856771,360.03125 730.903646,361.580729 733.039062,364.679688 C735.174479,367.778646 736.242188,372.309896 736.242188,378.273438 L736.242188,378.273438 L736.242188,381.046875 C736.216146,386.958333 735.148438,391.457031 733.039062,394.542969 C730.929688,397.628906 727.908854,399.171875 723.976562,399.171875 Z M774.25,408 C779.223958,407.973958 783.690104,406.828125 787.648438,404.5625 C791.606771,402.296875 794.673177,399.106771 796.847656,394.992188 C799.022135,390.877604 800.109375,386.177083 800.109375,380.890625 L800.109375,380.890625 L800.109375,378.273438 C800.109375,372.986979 799.002604,368.266927 796.789062,364.113281 C794.575521,359.959635 791.496094,356.75651 787.550781,354.503906 C783.605469,352.251302 779.132812,351.125 774.132812,351.125 L774.132812,351.125 L756.632812,351.125 L756.632812,408 L774.25,408 Z M774.015625,398.585938 L768.351562,398.585938 L768.351562,360.617188 L774.132812,360.617188 C778.742188,360.617188 782.244792,362.108073 784.640625,365.089844 C787.036458,368.071615 788.234375,372.453125 788.234375,378.234375 L788.234375,378.234375 L788.234375,381.242188 C788.182292,386.815104 786.945312,391.098958 784.523438,394.09375 C782.101562,397.088542 778.598958,398.585938 774.015625,398.585938 L774.015625,398.585938 Z M834.210938,408 L834.210938,387.375 L852.882812,351.125 L840.070312,351.125 L828.234375,376.75 L816.476562,351.125 L803.625,351.125 L822.296875,387.375 L822.296875,408 L834.210938,408 Z" id="REQUESTBODY" fill="#697A21" fill-rule="nonzero"></path>
            </g>
        </g>
    </g>
</svg>